<mxfile host="app.diagrams.net" modified="2023-06-06T11:21:31.054Z" agent="Mozilla/5.0 (Macintosh; Intel Mac OS X 10_15_7) AppleWebKit/605.1.15 (KHTML, like Gecko) Version/16.3 Safari/605.1.15" version="21.3.7" etag="KdhG0EfVh2_zgZT1rhkA" type="github">
  <diagram name="第 1 页" id="mU6c73B4BFhOADZtf5Dv">
    <mxGraphModel>
      <root>
        <mxCell id="0" />
        <mxCell id="1" parent="0" />
      </root>
    </mxGraphModel>
  </diagram>
</mxfile>
